<svg id="图层_1" data-name="图层 1" xmlns="http://www.w3.org/2000/svg" viewBox="0 0 1162.81 200"><path d="M706.81,579.43a44.78,44.78,0,0,1-64.52,19.83l104.48-68.65h0A86.88,86.88,0,0,0,738,513.55h0A86.41,86.41,0,0,0,586.46,526.8a86.5,86.5,0,0,0-124.3-39.65V447.68H420.48V561.14a86.54,86.54,0,0,0,166,34.33,86.53,86.53,0,0,0,164-16ZM507,606a44.86,44.86,0,1,1,44.86-44.85A44.91,44.91,0,0,1,507,606Zm158.87-89.71a44.4,44.4,0,0,1,20.3,4.89l-65.1,42.3c0-.77-.06-1.55-.06-2.33A44.91,44.91,0,0,1,665.89,516.28Z" transform="translate(-420.48 -447.68)" style="fill:#646464"/><path d="M943,447.68v57.58c-9.9-22.79-28.1-40.05-52.13-49.48,5.53,9.1,6.65,20.55,3,31.6S880.17,507,867.33,515.8c-1.12.77-2.69,1.82-4.4,3a11,11,0,0,0-1.6,17.06c2.89,2.8,5.84,5.66,8,7.71,18.35,17.46,36.85,34.12,54,49.07a12.91,12.91,0,0,0,20.37-4.67A96.27,96.27,0,0,0,951.43,550h9.72a105.62,105.62,0,0,1-8.35,41.36c-1,2.46-2.18,4.88-3.39,7.24a16.1,16.1,0,0,0,4,19.7c14.69,12.33,27.1,22.42,35.82,29.4H1011v-200Z" transform="translate(-420.48 -447.68)" style="fill:#0075ff"/><path d="M918.83,601.56c-20.66-18-43.4-38.5-65.54-60l-.09-.09a17,17,0,0,0-22-1.46,128,128,0,0,0-15,13c-11.51,11.87-17.17,24.31-17.3,38a56,56,0,0,0,56,55.45,97.38,97.38,0,0,0,20.48-2.16,107.24,107.24,0,0,0,26.46-10,96.55,96.55,0,0,0,17.2-12.25l.14-.13A13.73,13.73,0,0,0,918.83,601.56Z" transform="translate(-420.48 -447.68)" style="fill:#0075ff"/><path d="M884.61,484.36c2.77-8.46,1.85-17.48-2.46-24.14s-11.42-10.54-20.73-11.52a29.26,29.26,0,0,0-3.1-.16c-12.05,0-23.9,7.21-29,18-3.42,7.24-3.79,15.86-1.05,24.92a61.86,61.86,0,0,0,6.29,13.85c.08.14.75,1.12,1.71,2.51a14.44,14.44,0,0,0,20,3.72l2.54-1.73C871.3,501.44,881.71,493.24,884.61,484.36Z" transform="translate(-420.48 -447.68)" style="fill:#0075ff"/><path d="M948,626.43a15.27,15.27,0,0,0-5-2.78v24h30.74C966.4,641.76,957.68,634.6,948,626.43Z" transform="translate(-420.48 -447.68)" style="fill:#0075ff"/><path d="M808.47,637a65.25,65.25,0,0,1-19.24-46.45h0c.26-16.18,6.82-30.67,20-44.3a139.79,139.79,0,0,1,17.63-15.09,11.48,11.48,0,0,0,2.6-15.77A76.19,76.19,0,0,1,819,494.26c-3.44-11.41-2.9-22.44,1.57-31.89a40.11,40.11,0,0,1,12-14.69H759.94v200h62.54A66.07,66.07,0,0,1,808.47,637Z" transform="translate(-420.48 -447.68)" style="fill:#0075ff"/><path d="M1112.74,579.43h5.78v67.11h-5.78V629.7c-6.78,3-13.71,5.79-19.2,8.08l-2.59-5.64c5.56-1.83,13.64-4.95,21.79-8.07V602.74h-19.5v-5.56h19.5Zm39,60.56c3.58,0,4.12-3.13,4.65-15.77a17.38,17.38,0,0,0,5.49,2.66c-.69,13.87-2.29,18.67-9.68,18.67h-11.88c-7.16,0-9.22-2.21-9.22-10.21V579.43h5.79v25.29c7.08-4.34,14.24-9.45,18.82-13.79l4.57,4.73c-6.4,5.17-15.24,10.43-23.39,14.92v24.84c0,3.88.61,4.57,4,4.57Z" transform="translate(-420.48 -447.68)" style="fill:#646464"/><path d="M1222,640.44c4.26,0,5-2.43,5.63-12.34a17.57,17.57,0,0,0,5.56,2.52c-1,11.42-2.82,15.46-10.81,15.46H1205.6c-8.46,0-11-2.21-11-11.12v-8H1170.1V588.88h24.53V578h5.94v10.9h25.21V627h-25.21v8.15c0,4.42.84,5.33,5.41,5.33Zm-46.09-46.08v10.89h18.74V594.36Zm18.74,27V610.51h-18.74V621.4Zm5.94-27v10.89h19.58V594.36Zm19.58,27V610.51h-19.58V621.4Z" transform="translate(-420.48 -447.68)" style="fill:#646464"/><path d="M1259,601.67a47.83,47.83,0,0,1-13.4,11.12,18.11,18.11,0,0,0-3-4.26,39.29,39.29,0,0,0,14.7-11.88h-13.94v-4.73H1259V577.83h5.26v14.09h15.54v4.73H1265.5c3.81,2.2,10.36,6.47,12.11,7.76l-3.12,4.12a117.07,117.07,0,0,0-10.21-8.08v10.44H1259Zm11.81,40.22a64.41,64.41,0,0,0-6.63-4.27,50.06,50.06,0,0,1-18.81,9.14,18.69,18.69,0,0,0-2.67-4.34,46.83,46.83,0,0,0,16.91-7.31,104.08,104.08,0,0,0-11.65-5.25,84.4,84.4,0,0,0,4.87-8.08h-7.92V617h10.29a51.93,51.93,0,0,0,2-4.87l5,.91c-.53,1.3-1,2.59-1.6,4H1273l.84-.23,3.2,1.3a40,40,0,0,1-9.14,16.15,68.73,68.73,0,0,1,6.39,4ZM1251,591.39a39.19,39.19,0,0,0-4.72-10l4.11-1.67a35,35,0,0,1,5,9.82Zm7.31,30.39c-1.14,2.13-2.28,4.27-3.35,6,2.82,1.22,5.87,2.66,8.61,4a29,29,0,0,0,7.08-10.06Zm19.58-40.37a102.12,102.12,0,0,1-6.78,9.75l-3.66-1.75a65.23,65.23,0,0,0,5.71-10.13Zm28.33,16.38c-1.75,11.35-4.26,20.79-8.3,28.64,3.89,6.93,9.59,13.48,15.91,16.83a19,19,0,0,0-3.73,4.42c-5.87-3.58-11.42-9.67-15.15-16.15a49.54,49.54,0,0,1-18.05,16.15,22.51,22.51,0,0,0-3.13-4.57,42.26,42.26,0,0,0,18.44-16.83,92.47,92.47,0,0,1-6.71-20.34,57.91,57.91,0,0,1-5.18,10,31.3,31.3,0,0,0-4.26-3.43c5.79-8,9.22-20.72,11.12-33.9l5.18.76a120.93,120.93,0,0,1-2.59,13.18h21.48v5.26Zm-17.59,0a104.67,104.67,0,0,0,6.47,22.77,86.49,86.49,0,0,0,5.71-22.77Z" transform="translate(-420.48 -447.68)" style="fill:#646464"/><path d="M1350.42,614.24c-2.21-1.9-7.84-5.94-11.65-8.53-2.59,4.34-7.16,8.61-15.16,12.26a13.42,13.42,0,0,0-3.58-3.88c9.67-3.81,13.71-8.84,15.31-13.48h-14.62V596h15.61a17.28,17.28,0,0,0,.15-2.74V588.8h-6.4a36.72,36.72,0,0,1-4.79,6.78,39.18,39.18,0,0,0-4.57-2.74c3.88-3.74,6.85-9.45,8.6-15.16l5.1,1a48.81,48.81,0,0,1-2.05,5.56h20.72v4.57h-11.2v4.42a17.28,17.28,0,0,1-.15,2.74H1355v4.65H1340.9a9.38,9.38,0,0,1-.38,1.29c3,1.6,11.73,6.93,13.86,8.46Zm-18.66,2h46.46V647.3h-5.71v-2.67h-35.19v2.82h-5.56Zm5.56,4.65V628h35.19v-7.16ZM1372.51,640v-7.55h-35.19V640Zm12.19-56v26.43h-26.59V584Zm-5.56,5.1h-15.69v16.15h15.69Z" transform="translate(-420.48 -447.68)" style="fill:#646464"/><path d="M1110.7,466a8.81,8.81,0,0,1,4.88,8.25c0,5.39-4.65,9.6-10.56,9.6H1091V449.55h13.81c5.73,0,9.94,3.77,9.94,8.81a9.24,9.24,0,0,1-4,7.6Zm-1.61-6.78a4.44,4.44,0,0,0-4.68-4.46h-7.91v8.92h7.91a4.44,4.44,0,0,0,4.68-4.46Zm-4.38,19.26a4.85,4.85,0,1,0,0-9.69h-8.21v9.69Z" transform="translate(-420.48 -447.68)" style="fill:#646464"/><path d="M1146.61,470.66a17.71,17.71,0,0,1-.11,1.78h-21.45a7.76,7.76,0,0,0,8.09,6.92,7.94,7.94,0,0,0,7.11-3.87H1146a13.37,13.37,0,0,1-12.83,9c-7.73,0-13.58-6-13.58-13.86s5.83-13.86,13.58-13.86c8.09,0,13.47,6.23,13.47,13.92ZM1125.18,468h16a7.89,7.89,0,0,0-8-6.39A7.81,7.81,0,0,0,1125.18,468Z" transform="translate(-420.48 -447.68)" style="fill:#646464"/><path d="M1151.81,447.68h5.61v5.6h-5.61Zm.09,9.7h5.43v26.43h-5.43Z" transform="translate(-420.48 -447.68)" style="fill:#646464"/><path d="M1158.61,488.32h1.89c3,0,4.67-1.68,4.67-4.7V457.38h5.43V484c0,5.5-3.76,9.26-9.3,9.26h-2.69Zm6.5-40.64h5.62v5.6h-5.62Z" transform="translate(-420.48 -447.68)" style="fill:#646464"/><path d="M1177.75,447.68h5.62v5.6h-5.62Zm.1,9.7h5.43v26.43h-5.43Z" transform="translate(-420.48 -447.68)" style="fill:#646464"/><path d="M1204.52,456.78c6.18,0,10,4.61,10,11.12v15.91h-5.44V469c0-4.8-2.09-7.35-6.06-7.35-4.15,0-7.1,3.34-7.1,8v14.15h-5.44V457.38h3.79l1.06,3.69a11.16,11.16,0,0,1,9.15-4.29Z" transform="translate(-420.48 -447.68)" style="fill:#646464"/><path d="M1246.66,457.38v23c0,8.44-5,13.58-13.19,13.58-6.77,0-11.58-3.51-12.93-9.31H1226c1,2.9,4.12,4.5,7.46,4.5,4.57,0,7.92-3,7.92-8v-1.22a13.28,13.28,0,0,1-8.76,3.16,13.15,13.15,0,0,1,0-26.3,13.09,13.09,0,0,1,9.65,4.05l.86-3.41ZM1233.2,478a8.1,8.1,0,1,0-8.15-8.09,7.85,7.85,0,0,0,8.15,8.09Z" transform="translate(-420.48 -447.68)" style="fill:#646464"/><path d="M1286.69,478.5v5.31h-20.43V449.55h19.9v5.26h-14.28v8.95h13v5.16h-13v9.58Z" transform="translate(-420.48 -447.68)" style="fill:#646464"/><path d="M1292.5,447.9h5.43v35.91h-5.43Z" transform="translate(-420.48 -447.68)" style="fill:#646464"/><path d="M1330.29,470.66a17.71,17.71,0,0,1-.11,1.78h-21.46a7.77,7.77,0,0,0,8.09,6.92,8,8,0,0,0,7.12-3.87h5.72a13.38,13.38,0,0,1-12.84,9c-7.72,0-13.58-6-13.58-13.86s5.84-13.86,13.58-13.86c8.1,0,13.48,6.23,13.48,13.92ZM1308.86,468h16a7.9,7.9,0,0,0-8-6.39A7.81,7.81,0,0,0,1308.86,468Z" transform="translate(-420.48 -447.68)" style="fill:#646464"/><path d="M1347.49,484.46a13.86,13.86,0,1,1,0-27.72,13,13,0,0,1,13.11,10.06h-5.39a8.42,8.42,0,0,0-16,3.78,8.38,8.38,0,0,0,8.32,8.69,8.19,8.19,0,0,0,7.7-5.08h5.48a13.15,13.15,0,0,1-13.18,10.27Z" transform="translate(-420.48 -447.68)" style="fill:#646464"/><path d="M1380.28,478.88v4.93h-4c-5.8,0-9.37-3.57-9.37-9.41V462h-4.73V461l9.2-9.77h.92v6.17h7.87V462h-7.83V474c0,3.15,1.76,4.91,5,4.91Z" transform="translate(-420.48 -447.68)" style="fill:#646464"/><path d="M1400.11,457.23v5.14h-2.87c-4.49,0-6.74,2.56-6.74,7.35v14.09h-5.43V457.38h3.68l.91,3.61a9.42,9.42,0,0,1,8.1-3.76Z" transform="translate(-420.48 -447.68)" style="fill:#646464"/><path d="M1401.19,470.6c0-8,6-13.86,14.13-13.86s14.14,5.9,14.14,13.86-6.07,13.86-14.14,13.86S1401.19,478.54,1401.19,470.6Zm22.74,0a8.61,8.61,0,1,0-8.61,8.67A8.33,8.33,0,0,0,1423.93,470.6Z" transform="translate(-420.48 -447.68)" style="fill:#646464"/><path d="M1448.75,456.78c6.18,0,10,4.61,10,11.12v15.91h-5.43V469c0-4.8-2.09-7.35-6.07-7.35-4.15,0-7.1,3.34-7.1,8v14.15h-5.43V457.38h3.79l1,3.69a11.17,11.17,0,0,1,9.15-4.29Z" transform="translate(-420.48 -447.68)" style="fill:#646464"/><path d="M1465.61,447.68h5.61v5.6h-5.61Zm.09,9.7h5.43v26.43h-5.43Z" transform="translate(-420.48 -447.68)" style="fill:#646464"/><path d="M1490.29,484.46a13.86,13.86,0,1,1,0-27.72,13,13,0,0,1,13.11,10.06H1498a8.42,8.42,0,0,0-16,3.78,8.38,8.38,0,0,0,8.32,8.69,8.19,8.19,0,0,0,7.7-5.08h5.48a13.15,13.15,0,0,1-13.18,10.27Z" transform="translate(-420.48 -447.68)" style="fill:#646464"/><path d="M1120.41,525.41c0,9.94-7.31,17.15-17.38,17.15H1091V508.29H1103C1113.12,508.29,1120.41,515.49,1120.41,525.41Zm-5.75,0c0-6.91-4.86-11.87-11.79-11.87h-6.3v23.78h6.3C1109.8,537.32,1114.66,532.31,1114.66,525.41Z" transform="translate(-420.48 -447.68)" style="fill:#646464"/><path d="M1125.67,506.42h5.61V512h-5.61Zm.09,9.71h5.43v26.43h-5.43Z" transform="translate(-420.48 -447.68)" style="fill:#646464"/><path d="M1163.63,516.13v23c0,8.43-5,13.58-13.19,13.58-6.77,0-11.58-3.51-12.93-9.32h5.42c1,2.9,4.13,4.5,7.47,4.5,4.57,0,7.91-3,7.91-8v-1.22a13.2,13.2,0,0,1-8.75,3.16,13.15,13.15,0,0,1,0-26.3,13.07,13.07,0,0,1,9.64,4.06l.87-3.41Zm-13.45,20.61a8.1,8.1,0,1,0-8.15-8.08,7.84,7.84,0,0,0,8.15,8.08Z" transform="translate(-420.48 -447.68)" style="fill:#646464"/><path d="M1170.8,506.42h5.62V512h-5.62Zm.09,9.71h5.44v26.43h-5.44Z" transform="translate(-420.48 -447.68)" style="fill:#646464"/><path d="M1198.37,537.62v4.94h-4c-5.79,0-9.36-3.57-9.36-9.41V520.78h-4.73v-1l9.19-9.77h.93v6.17h7.86v4.65h-7.82v11.94c0,3.15,1.75,4.9,4.95,4.9Z" transform="translate(-420.48 -447.68)" style="fill:#646464"/><path d="M1229.18,516.11v26.44h-4.38l-.53-3.22a13.3,13.3,0,0,1-9.59,3.87,13.86,13.86,0,0,1,0-27.72,13.26,13.26,0,0,1,9.67,3.94l.64-3.31Zm-5.45,13.22a8.64,8.64,0,1,0-8.62,8.67A8.4,8.4,0,0,0,1223.73,529.33Z" transform="translate(-420.48 -447.68)" style="fill:#646464"/><path d="M1236.44,506.65h5.44v35.91h-5.44Z" transform="translate(-420.48 -447.68)" style="fill:#646464"/><path d="M1281.92,542.56l-2.37-2.61a15.86,15.86,0,0,1-9.83,3.16c-6.32,0-10.54-3.74-10.54-9.41,0-4.89,3-7.71,6.51-9.9-2.82-3.87-3.54-6-3.54-8.35,0-4.75,3.65-7.69,9.08-7.69s9,3.05,9,7.55c0,4.82-3.84,7.38-7.75,9.66,1.82,2.27,4.1,4.92,6.85,8a12.83,12.83,0,0,0,1.63-6.11h4.59a17.6,17.6,0,0,1-2.91,9.81q2.44,2.73,5.3,5.86Zm-5.61-6.19c-3.29-3.67-5.85-6.6-7.82-9-2.39,1.61-4.19,3.45-4.19,6.15,0,2.89,2.38,4.8,5.91,4.8A10.3,10.3,0,0,0,1276.31,536.37Zm-5.08-24.5c-2.54,0-4.24,1.44-4.24,3.59,0,1.39.92,3.32,2.79,6,3.06-1.73,5.62-3.41,5.62-6.11,0-2-1.69-3.45-4.17-3.45Z" transform="translate(-420.48 -447.68)" style="fill:#646464"/><path d="M1302.73,508.29h5.62v34.27h-5.62Z" transform="translate(-420.48 -447.68)" style="fill:#646464"/><path d="M1330,515.52c6.18,0,10,4.61,10,11.12v15.92h-5.43V527.75c0-4.8-2.09-7.35-6.07-7.35-4.15,0-7.1,3.34-7.1,8v14.15H1316V516.13h3.79l1,3.68a11.19,11.19,0,0,1,9.15-4.29Z" transform="translate(-420.48 -447.68)" style="fill:#646464"/><path d="M1361.49,537.62v4.94h-4c-5.79,0-9.37-3.57-9.37-9.41V520.78h-4.72v-1l9.19-9.77h.93v6.17h7.86v4.65h-7.82v11.94c0,3.15,1.75,4.9,5,4.9Z" transform="translate(-420.48 -447.68)" style="fill:#646464"/><path d="M1391.09,529.4a17.91,17.91,0,0,1-.11,1.79h-21.45a7.77,7.77,0,0,0,8.09,6.92,7.93,7.93,0,0,0,7.11-3.87h5.72a13.36,13.36,0,0,1-12.83,9c-7.73,0-13.58-6-13.58-13.86s5.84-13.86,13.58-13.86c8.09,0,13.47,6.23,13.47,13.92Zm-21.43-2.63h16a7.91,7.91,0,0,0-8-6.38A7.8,7.8,0,0,0,1369.66,526.77Z" transform="translate(-420.48 -447.68)" style="fill:#646464"/><path d="M1396.38,506.65h5.43v35.91h-5.43Z" transform="translate(-420.48 -447.68)" style="fill:#646464"/><path d="M1409.06,506.65h5.43v35.91h-5.43Z" transform="translate(-420.48 -447.68)" style="fill:#646464"/><path d="M1421.65,506.42h5.61V512h-5.61Zm.09,9.71h5.43v26.43h-5.43Z" transform="translate(-420.48 -447.68)" style="fill:#646464"/><path d="M1459.61,516.13v23c0,8.43-5,13.58-13.19,13.58-6.77,0-11.58-3.51-12.92-9.32h5.42c1,2.9,4.12,4.5,7.46,4.5,4.57,0,7.91-3,7.91-8v-1.22a13.2,13.2,0,0,1-8.75,3.16,13.15,13.15,0,0,1,0-26.3,13.07,13.07,0,0,1,9.64,4.06l.87-3.41Zm-13.45,20.61a8.1,8.1,0,1,0-8.15-8.08,7.84,7.84,0,0,0,8.15,8.08Z" transform="translate(-420.48 -447.68)" style="fill:#646464"/><path d="M1492,529.4a17.91,17.91,0,0,1-.11,1.79h-21.46a7.78,7.78,0,0,0,8.09,6.92,8,8,0,0,0,7.12-3.87h5.72a13.37,13.37,0,0,1-12.84,9c-7.72,0-13.58-6-13.58-13.86s5.84-13.86,13.58-13.86c8.09,0,13.48,6.23,13.48,13.92Zm-21.43-2.63h16a7.9,7.9,0,0,0-8-6.38A7.8,7.8,0,0,0,1470.56,526.77Z" transform="translate(-420.48 -447.68)" style="fill:#646464"/><path d="M1511.27,515.52c6.18,0,10,4.61,10,11.12v15.92h-5.44V527.75c0-4.8-2.08-7.35-6.06-7.35-4.15,0-7.1,3.34-7.1,8v14.15h-5.43V516.13h3.78l1.06,3.68a11.19,11.19,0,0,1,9.15-4.29Z" transform="translate(-420.48 -447.68)" style="fill:#646464"/><path d="M1540.13,543.2a13.86,13.86,0,1,1,0-27.72,13,13,0,0,1,13.11,10.07h-5.39a8.42,8.42,0,0,0-16.06,3.78,8.38,8.38,0,0,0,8.33,8.68,8.18,8.18,0,0,0,7.7-5.08h5.48a13.14,13.14,0,0,1-13.18,10.27Z" transform="translate(-420.48 -447.68)" style="fill:#646464"/><path d="M1583.29,529.4a17.91,17.91,0,0,1-.11,1.79h-21.46a7.78,7.78,0,0,0,8.09,6.92,8,8,0,0,0,7.12-3.87h5.72a13.37,13.37,0,0,1-12.84,9c-7.72,0-13.58-6-13.58-13.86s5.84-13.86,13.58-13.86c8.09,0,13.48,6.23,13.48,13.92Zm-21.43-2.63h16a7.9,7.9,0,0,0-8-6.38A7.8,7.8,0,0,0,1561.86,526.77Z" transform="translate(-420.48 -447.68)" style="fill:#646464"/></svg>